<svg width="104" height="24" viewBox="0 0 104 24" fill="none" xmlns="http://www.w3.org/2000/svg">
<path d="M2.67069 23.4852C4.35947 23.2079 6.08725 22.9307 7.77644 22.6535C7.69803 22.574 7.65862 22.495 7.61922 22.4552C6.99116 21.6235 6.71613 20.594 6.71613 19.3663V7.08904C7.14797 7.12877 7.61922 7.16808 8.09047 7.2078C8.44391 7.72256 8.79734 8.27704 9.19019 8.79221V7.48463C9.19019 5.02918 7.77644 2.8907 6.08766 2.65277C5.65581 2.61346 5.22356 2.53401 4.83072 2.4947C4.79172 2.45497 4.71291 2.45497 4.67391 2.45497C3.90092 2.33931 3.12836 2.22069 2.35625 2.09911C1.49256 1.97994 0.746281 1.38615 0.157219 0.27718C0.117812 0.197732 0.0394063 0.0789734 0 -6.10352e-05V1.5049C0 4.11884 1.21753 6.4158 2.7885 6.77249V6.8118H3.10253C3.29916 6.85152 3.49537 6.85153 3.731 6.89084V19.6832C3.731 20.99 3.41697 22.1784 2.82791 23.2079C2.74909 23.3267 2.71009 23.4057 2.67069 23.4852ZM63.9397 16.4755C64.5287 16.4755 65.1178 16.5148 65.6679 16.5148V14.3366C65.6285 13.4255 65.9425 12.6335 66.5316 11.9602C67.16 11.3267 67.9063 10.9704 68.7704 10.9704H69.6739C69.6345 11.0097 69.5951 11.0892 69.5167 11.1285C68.9276 11.8017 68.6132 12.5941 68.6132 13.5049V19.881C66.0603 19.7623 63.5074 19.6833 60.994 19.6038V7.88104C60.994 7.01001 60.6799 6.21759 60.0515 5.6238C60.0203 5.55287 59.9642 5.49636 59.8943 5.46532C61.7797 5.42559 63.6253 5.38587 65.5107 5.30684C67.2388 5.26711 68.6132 6.69304 68.6132 8.55428V9.54449L68.4564 9.38601C67.8669 8.75249 67.121 8.43552 66.2569 8.43552C65.4712 8.47525 64.725 8.47525 63.9397 8.47525V16.4755ZM27.2569 11.049H24.6647V8.07883C24.9787 8.07883 25.2931 8.11815 25.6466 8.11815C26.5107 8.15787 27.2175 8.51415 27.8066 9.22711L28.0028 9.42532V8.35608C28.0028 6.41539 26.5891 4.75194 24.9003 4.63318C23.4731 4.51603 22.0461 4.39727 20.6192 4.2769C20.6586 4.35594 20.698 4.39566 20.7764 4.4747C21.3655 5.2667 21.6799 6.17787 21.6799 7.20739V18.0591C21.6799 19.089 21.3655 19.9998 20.7764 20.7918C20.698 20.8713 20.6586 20.9503 20.6192 21.0297C22.033 20.8713 23.4471 20.7525 24.9003 20.6337C26.5891 20.4753 28.0028 18.8118 28.0028 16.8318V15.8019C27.9244 15.8416 27.885 15.9206 27.8066 15.9604C27.2175 16.6733 26.5107 17.0693 25.6466 17.109C25.2931 17.109 24.9787 17.1484 24.6647 17.1484V14.2179C25.5288 14.1781 26.3928 14.1781 27.2565 14.1384L27.2569 11.049ZM9.62244 22.3762C9.93647 22.3365 10.2509 22.2575 10.5649 22.2177C12.2931 21.9802 13.6679 19.9605 13.6679 17.6631V15.2871C14.2175 15.2871 14.8066 15.2474 15.3957 15.2077V17.5444C15.3957 19.7623 16.7704 21.4257 18.4986 21.2275C18.8126 21.1882 19.1271 21.1485 19.4411 21.1485L19.2449 20.9503C18.6558 20.277 18.3414 19.3663 18.3414 18.297V7.04973C18.3414 5.98008 18.6554 5.06932 19.2449 4.35635C19.3233 4.31663 19.3627 4.23759 19.4411 4.15856C19.1271 4.15856 18.8126 4.11884 18.4986 4.07911C16.7704 3.92063 15.3957 5.58408 15.3957 7.84132V10.6928C14.8066 10.6928 14.2175 10.6535 13.6679 10.6535V7.76187C13.6679 5.4649 12.2931 3.44518 10.5649 3.24739C10.2509 3.20725 9.93647 3.16794 9.62244 3.12821C9.70084 3.20725 9.74025 3.2867 9.77966 3.36573C10.4077 4.2769 10.7222 5.34615 10.7222 6.53415V18.9301C10.7222 20.1181 10.4077 21.1878 9.77966 22.0986C9.74025 22.1776 9.70084 22.2968 9.62244 22.3762ZM37.8219 19.8413C37.7431 19.7623 37.7041 19.7226 37.6252 19.6832C37.0362 19.0493 36.7222 18.2573 36.7222 17.3466V17.0693C36.7222 16.1581 37.0362 15.3661 37.6252 14.7326C37.9003 14.4157 38.1753 14.1384 38.4499 13.8612V16.5148C38.4499 18.3368 39.8247 19.7623 41.5529 19.7226C41.8669 19.6833 42.1813 19.6832 42.4954 19.6832C42.417 19.6435 42.3776 19.5641 42.3386 19.5248C41.7101 18.8908 41.4351 18.1386 41.4351 17.2278V12.3959H39.8247C40.0603 12.1584 40.2569 11.9209 40.4926 11.683C41.121 11.0495 41.4351 10.2575 41.4351 9.38642V7.88104C41.4351 6.97028 41.7101 6.21759 42.3386 5.58408C42.3776 5.54435 42.417 5.46532 42.4954 5.42559C42.1813 5.42559 41.8669 5.42559 41.5529 5.38587C39.8247 5.34656 38.4499 6.77208 38.4499 8.59401V8.79221C38.4499 9.70256 38.1359 10.495 37.5468 11.1285L36.7222 11.9602V8.59401C36.7222 6.73277 35.3474 5.18808 33.6192 5.10863C33.3052 5.10863 32.9907 5.10863 32.6767 5.06932L32.8729 5.26711C33.4597 5.92936 33.782 6.79122 33.7764 7.68325V17.4653C33.7819 18.3572 33.4596 19.2189 32.8729 19.881L32.6767 20.0793C34.4049 19.9998 36.0933 19.9208 37.8219 19.8413ZM43.6739 19.6435C45.3627 19.6038 47.0905 19.6038 48.7797 19.5645C48.7402 19.5248 48.6614 19.485 48.6224 19.406C48.0334 18.8118 47.7189 18.0198 47.7189 17.1484V7.92077C47.7189 7.04932 48.0334 6.29704 48.6224 5.66311C48.6614 5.6238 48.7402 5.58408 48.7797 5.50504C47.0905 5.50504 45.3627 5.46532 43.6739 5.42559C43.7129 5.50504 43.7917 5.54435 43.8307 5.6238C44.4592 6.25732 44.7342 7.01001 44.7342 7.92035V17.1881C44.7342 18.0591 44.4592 18.8515 43.8307 19.485C43.7917 19.5641 43.7129 19.6038 43.6739 19.6435ZM58.6767 5.46532H58.2449C57.3808 5.46532 56.6345 5.82159 56.0454 6.4158C55.3776 7.12877 54.7101 7.84132 54.0032 8.51456V5.50504H49.9578C50.0362 5.58408 50.0756 5.6238 50.154 5.66311C50.7431 6.29704 51.0575 7.04932 51.0575 7.96049V17.1484C51.0575 18.0198 50.7431 18.7721 50.154 19.406C50.0756 19.4453 50.0362 19.5248 49.9578 19.5645H50.9003C52.6285 19.5645 54.0032 18.1386 54.0032 16.3564V13.4255C54.0032 12.5544 54.3173 11.8017 54.9063 11.1682L55.731 10.3365V16.3961C55.731 18.1381 57.1058 19.6038 58.8339 19.6038C59.148 19.6435 59.4624 19.6435 59.7764 19.6435C59.698 19.6038 59.6586 19.5248 59.6192 19.485C58.9908 18.8118 58.6767 18.0591 58.6767 17.1881V5.46532ZM69.7523 19.9998C71.5983 20.0793 73.4443 20.198 75.2899 20.3168C76.154 20.3958 76.8609 20.1186 77.4893 19.4453C77.4893 19.406 77.5287 19.406 77.5682 19.3663C78.1572 18.693 78.4713 17.8613 78.4713 16.8711V8.35649C78.4713 7.36628 78.1572 6.53456 77.5682 5.86132L77.4893 5.78228C76.8609 5.10863 76.154 4.83139 75.2899 4.87111C73.4443 4.98987 71.5983 5.06932 69.7523 5.14835L69.9095 5.30684C70.5376 5.94035 70.8126 6.73277 70.8126 7.68325V17.4653C70.8126 18.4158 70.5376 19.2078 69.9095 19.8413C69.8701 19.881 69.7917 19.9208 69.7523 19.9998ZM73.7978 8.27704C74.3474 8.23773 74.9365 8.23773 75.4865 8.19801V16.9895C74.9365 16.9501 74.3474 16.9501 73.7978 16.9104V8.27704ZM83.9304 21.069C84.4017 21.1088 84.8729 21.1485 85.3446 21.2275C87.0724 21.4257 88.4471 19.7623 88.4471 17.5448V7.84132C88.4471 5.62339 87.0724 3.92063 85.3446 4.07911C84.8729 4.15856 84.4017 4.19787 83.9304 4.23759C82.2023 4.35635 80.7885 6.13856 80.7885 8.19759V17.0693C80.7885 19.089 82.2023 20.911 83.9304 21.069ZM83.7736 7.88146C84.3233 7.88146 84.9123 7.84173 85.5014 7.80201V17.505C84.9123 17.4653 84.3233 17.4256 83.7736 17.3859V7.88146ZM99.2871 23.1285C99.2477 23.0495 99.2083 22.97 99.1299 22.891C98.5408 21.8615 98.2264 20.7128 98.2264 19.4453V14.0991C98.2264 12.8317 98.5408 11.7227 99.1299 10.8119C99.4049 10.3762 99.6799 9.98021 99.9546 9.54449V18.4948C99.9546 21.1088 101.329 23.4852 103.058 23.8017C103.372 23.8812 103.686 23.9205 104 23.9999C103.922 23.8812 103.882 23.8017 103.804 23.683C103.214 22.6137 102.9 21.3864 102.9 20.0002V1.90049C102.743 1.94021 102.586 1.94021 102.468 1.97953C101.604 2.0987 100.858 2.69249 100.269 3.72242C99.6011 4.83139 98.8942 5.90063 98.2264 6.96987V2.61387C98.0793 2.6173 97.9336 2.64396 97.7945 2.6929C96.9304 2.77235 96.1842 3.32684 95.5951 4.27732C94.9276 5.30684 94.2203 6.33635 93.5529 7.32697V3.20725C92.2175 3.36573 90.8428 3.52421 89.5074 3.6827C89.5468 3.76173 89.6253 3.80146 89.6647 3.88049C90.2931 4.63318 90.5682 5.58366 90.5682 6.73235V18.6926C90.5682 19.8409 90.2931 20.7914 89.6647 21.5044C89.6253 21.5838 89.5468 21.6628 89.5074 21.7026L90.4503 21.8213C92.1391 22.0588 93.5529 20.3164 93.5529 17.9399V13.9402C93.5529 12.7518 93.8669 11.7223 94.4564 10.8906C94.731 10.4946 95.006 10.0986 95.2417 9.70256V18.0591C95.2417 20.5146 96.6554 22.6924 98.3836 22.9696C98.698 23.049 99.0121 23.0892 99.2871 23.1285Z" fill="#070707"/>
</svg>
