<svg width="138" height="32" viewBox="0 0 138 32" fill="none" xmlns="http://www.w3.org/2000/svg">
  <path d="M3.5438 31.3137C5.78468 30.944 8.07731 30.5743 10.3187 30.2047C10.2147 30.0988 10.1624 29.9934 10.1101 29.9404C9.27673 28.8314 8.91178 27.4588 8.91178 25.8218V9.45214C9.48481 9.5051 10.1101 9.55752 10.7354 9.61048C11.2044 10.2968 11.6734 11.0361 12.1947 11.723V9.97959C12.1947 6.70565 10.3187 3.85435 8.07785 3.5371C7.50483 3.48469 6.93127 3.37876 6.40999 3.32634C6.35824 3.27338 6.25366 3.27338 6.20191 3.27338C5.17622 3.11916 4.1511 2.96099 3.12656 2.7989C1.98052 2.64 0.990258 1.84828 0.208617 0.369655C0.156328 0.263724 0.0522891 0.105379 0 0V2.00662C0 5.49186 1.61557 8.55448 3.70012 9.03007V9.08248H4.11682C4.37773 9.13545 4.63809 9.13545 4.95075 9.18786V26.2444C4.95075 27.9868 4.53405 29.5713 3.75241 30.944C3.64784 31.1023 3.59609 31.2077 3.5438 31.3137ZM84.843 21.9674C85.6247 21.9674 86.4063 22.0199 87.1362 22.0199V19.1156C87.0839 17.9007 87.5006 16.8447 88.2823 15.947C89.1162 15.1023 90.1065 14.6273 91.253 14.6273H92.4519C92.3996 14.6797 92.3473 14.7857 92.2433 14.8381C91.4617 15.7357 91.0444 16.7923 91.0444 18.0066V26.5081C87.657 26.3498 84.2695 26.2444 80.9343 26.1385V10.5081C80.9343 9.34676 80.5176 8.29021 79.6837 7.49848C79.6423 7.40391 79.5679 7.32856 79.4751 7.28717C81.9769 7.23421 84.4258 7.18124 86.9276 7.07586C89.2208 7.0229 91.0444 8.92414 91.0444 11.4058V12.7261L90.8363 12.5148C90.0542 11.6701 89.0644 11.2474 87.9179 11.2474C86.8753 11.3004 85.8851 11.3004 84.843 11.3004V21.9674ZM36.1679 14.7321H32.7281V10.7719C33.1448 10.7719 33.562 10.8243 34.031 10.8243C35.1776 10.8772 36.1156 11.3523 36.8972 12.3029L37.1576 12.5672V11.1415C37.1576 8.55393 35.2816 6.336 33.0408 6.17766C31.147 6.02145 29.2535 5.86311 27.3601 5.70262C27.4124 5.808 27.4647 5.86097 27.5687 5.96634C28.3504 7.02234 28.7676 8.23724 28.7676 9.60993V24.0789C28.7676 25.4521 28.3504 26.6665 27.5687 27.7225C27.4647 27.8284 27.4124 27.9338 27.3601 28.0397C29.2361 27.8284 31.1125 27.6701 33.0408 27.5117C35.2816 27.3004 37.1576 25.0825 37.1576 22.4425V21.0692C37.0535 21.1222 37.0012 21.2276 36.8972 21.2806C36.1156 22.2312 35.1776 22.7592 34.031 22.8121C33.562 22.8121 33.1448 22.8646 32.7281 22.8646V18.9572C33.8747 18.9043 35.0213 18.9043 36.1673 18.8513L36.1679 14.7321ZM12.7682 29.835C13.1849 29.7821 13.6022 29.6767 14.0189 29.6237C16.312 29.307 18.1362 26.6141 18.1362 23.5509V20.3829C18.8656 20.3829 19.6472 20.3299 20.4289 20.277V23.3926C20.4289 26.3498 22.253 28.5677 24.5462 28.3034C24.9629 28.251 25.3801 28.1981 25.7968 28.1981L25.5365 27.9338C24.7548 27.0361 24.3376 25.8218 24.3376 24.3961V9.39972C24.3376 7.97352 24.7543 6.75917 25.5365 5.80855C25.6405 5.75559 25.6928 5.65021 25.7968 5.54483C25.3801 5.54483 24.9629 5.49186 24.5462 5.4389C22.253 5.22759 20.4289 7.44552 20.4289 10.4552V14.2571C19.6472 14.2571 18.8656 14.2047 18.1362 14.2047V10.3492C18.1362 7.28662 16.312 4.59366 14.0189 4.32993C13.6022 4.27641 13.1849 4.224 12.7682 4.17103C12.8723 4.27641 12.9246 4.38234 12.9769 4.48772C13.8102 5.70262 14.2275 7.12828 14.2275 8.71228V25.2403C14.2275 26.8243 13.8102 28.2505 12.9769 29.4648C12.9246 29.5702 12.8723 29.7291 12.7682 29.835ZM50.1867 26.4552C50.0821 26.3498 50.0304 26.2968 49.9258 26.2444C49.1442 25.3992 48.7275 24.3432 48.7275 23.1288V22.7592C48.7275 21.5443 49.1442 20.4883 49.9258 19.6436C50.2908 19.221 50.6557 18.8513 51.0201 18.4817V22.0199C51.0201 24.4491 52.8443 26.3498 55.1375 26.2968C55.5542 26.2444 55.9714 26.2444 56.3881 26.2444C56.2841 26.1914 56.2318 26.0855 56.18 26.0331C55.3461 25.1879 54.9811 24.1848 54.9811 22.9705V16.528H52.8443C53.157 16.2113 53.4179 15.8946 53.7305 15.5774C54.5644 14.7327 54.9811 13.6767 54.9811 12.5153V10.5081C54.9811 9.29379 55.3461 8.29021 56.18 7.44552C56.2318 7.39255 56.2841 7.28717 56.3881 7.23421C55.9714 7.23421 55.5542 7.23421 55.1375 7.18124C52.8443 7.12883 51.0201 9.02952 51.0201 11.4588V11.723C51.0201 12.9368 50.6034 13.9934 49.8218 14.8381L48.7275 15.947V11.4588C48.7275 8.9771 46.9033 6.91752 44.6101 6.81159C44.1934 6.81159 43.7762 6.81159 43.3595 6.75917L43.6199 7.0229C44.3984 7.90589 44.8261 9.05505 44.8187 10.2444V23.2872C44.8259 24.4764 44.3983 25.6253 43.6199 26.5081L43.3595 26.7724C45.6527 26.6665 47.893 26.5611 50.1867 26.4552ZM57.9519 26.1914C60.1928 26.1385 62.4854 26.1385 64.7269 26.0861C64.6746 26.0331 64.57 25.9801 64.5182 25.8748C63.7366 25.0825 63.3194 24.0265 63.3194 22.8646V10.5611C63.3194 9.39917 63.7366 8.39614 64.5182 7.5509C64.57 7.49848 64.6746 7.44552 64.7269 7.34014C62.4854 7.34014 60.1928 7.28717 57.9519 7.23421C58.0037 7.34014 58.1082 7.39255 58.16 7.49848C58.9939 8.34317 59.3589 9.34676 59.3589 10.5606V22.9175C59.3589 24.0789 58.9939 25.1354 58.16 25.9801C58.1082 26.0855 58.0037 26.1385 57.9519 26.1914ZM77.8595 7.28717H77.2865C76.1399 7.28717 75.1496 7.76221 74.368 8.55448C73.4818 9.5051 72.5961 10.4552 71.6581 11.3528V7.34014H66.2901C66.3942 7.44552 66.4465 7.49848 66.5505 7.5509C67.3321 8.39614 67.7494 9.39917 67.7494 10.6141V22.8646C67.7494 24.0265 67.3321 25.0295 66.5505 25.8748C66.4465 25.9272 66.3942 26.0331 66.2901 26.0861H67.5408C69.8339 26.0861 71.6581 24.1848 71.6581 21.8086V17.9007C71.6581 16.7393 72.0748 15.7357 72.8565 14.891L73.9508 13.7821V21.8615C73.9508 24.1843 75.7749 26.1385 78.0681 26.1385C78.4848 26.1914 78.902 26.1914 79.3187 26.1914C79.2147 26.1385 79.1624 26.0331 79.1101 25.9801C78.2762 25.0825 77.8595 24.0789 77.8595 22.9175V7.28717ZM92.556 26.6665C95.0055 26.7724 97.4549 26.9308 99.9039 27.0891C101.05 27.1945 101.988 26.8248 102.822 25.9272C102.822 25.8748 102.875 25.8748 102.927 25.8218C103.709 24.9241 104.125 23.8152 104.125 22.4949V11.1421C104.125 9.82179 103.709 8.71283 102.927 7.81517L102.822 7.70979C101.988 6.81159 101.05 6.44193 99.9039 6.4949C97.4549 6.65324 95.0055 6.75917 92.556 6.86455L92.7646 7.07586C93.598 7.92055 93.9629 8.9771 93.9629 10.2444V23.2872C93.9629 24.5545 93.598 25.6105 92.7646 26.4552C92.7123 26.5081 92.6082 26.5611 92.556 26.6665ZM97.9239 11.0361C98.6533 10.9837 99.4349 10.9837 100.165 10.9308V22.6527C99.4349 22.6003 98.6533 22.6003 97.9239 22.5473V11.0361ZM111.369 28.0921C111.995 28.1451 112.62 28.1981 113.246 28.3034C115.538 28.5677 117.363 26.3498 117.363 23.3931V10.4552C117.363 7.49793 115.538 5.22759 113.246 5.4389C112.62 5.54483 111.995 5.59724 111.369 5.65021C109.076 5.80855 107.2 8.18483 107.2 10.9302V22.7592C107.2 25.4521 109.076 27.8814 111.369 28.0921ZM111.161 10.5087C111.891 10.5087 112.672 10.4557 113.454 10.4028V23.3401C112.672 23.2872 111.891 23.2342 111.161 23.1812V10.5087ZM131.746 30.8381C131.694 30.7327 131.642 30.6268 131.538 30.5214C130.756 29.1487 130.339 27.6171 130.339 25.9272V18.7989C130.339 17.109 130.756 15.6303 131.538 14.416C131.903 13.835 132.268 13.307 132.632 12.7261V24.6599C132.632 28.1451 134.456 31.3137 136.749 31.7357C137.166 31.8417 137.583 31.8941 138 32C137.896 31.8417 137.844 31.7357 137.74 31.5774C136.957 30.1517 136.541 28.5153 136.541 26.667V2.53407C136.332 2.58703 136.124 2.58703 135.968 2.63945C134.821 2.79834 133.831 3.59007 133.049 4.96331C132.163 6.44193 131.225 7.86759 130.339 9.29324V3.48524C130.144 3.48981 129.95 3.52536 129.766 3.59062C128.619 3.69655 127.629 4.43586 126.847 5.70317C125.962 7.07586 125.023 8.44855 124.137 9.76938V4.27641C122.366 4.48772 120.541 4.69903 118.769 4.91035C118.822 5.01572 118.926 5.06869 118.978 5.17407C119.812 6.17766 120.177 7.44496 120.177 8.97655V24.9236C120.177 26.4546 119.812 27.7219 118.978 28.6726C118.926 28.7785 118.822 28.8839 118.769 28.9368L120.021 29.0952C122.262 29.4119 124.137 27.0886 124.137 23.92V18.587C124.137 17.0025 124.554 15.6298 125.336 14.5208C125.701 13.9928 126.066 13.4648 126.378 12.9368V24.0789C126.378 27.3528 128.254 30.2566 130.547 30.6262C130.965 30.7321 131.381 30.7857 131.746 30.8381Z"
        fill="white" />
</svg>